<?xml version="1.0" encoding="UTF-8" standalone="no"?><!DOCTYPE svg PUBLIC "-//W3C//DTD SVG 1.1//EN" "http://www.w3.org/Graphics/SVG/1.1/DTD/svg11.dtd"><svg width="100%" height="100%" viewBox="0 0 679 328" version="1.1" xmlns="http://www.w3.org/2000/svg" xmlns:xlink="http://www.w3.org/1999/xlink" xml:space="preserve" xmlns:serif="http://www.serif.com/" style="fill-rule:evenodd;clip-rule:evenodd;stroke-linejoin:round;stroke-miterlimit:1.41421;"><g><g><g><rect x="255.43" y="0.067" width="168.245" height="14.638" style="fill:#384559;"/><path d="M314.599,172.271l0,-14.639l35.443,0l0,-122.346l73.633,0l0,14.579l-59.012,0.079l0,122.327l-50.064,0Z" style="fill:#384559;"/></g><g><rect x="255.43" y="35.286" width="14.65" height="14.65" style="fill:#e73655;"/><rect x="285.001" y="35.286" width="14.65" height="14.65" style="fill:#e73655;"/><rect x="314.612" y="35.286" width="14.65" height="14.65" style="fill:#e73655;"/><rect x="314.612" y="64.586" width="14.65" height="14.65" style="fill:#e73655;"/><rect x="314.612" y="93.483" width="14.65" height="14.65" style="fill:#e73655;"/><rect x="314.612" y="122.782" width="14.65" height="14.65" style="fill:#e73655;"/></g></g><g><path d="M36.535,248.611l0,8.108l-13.202,0l0,69.336l-10.291,0l0,-69.336l-12.89,0l0,-8.108l36.383,0Z" style="fill:#384559;fill-rule:nonzero;"/><path d="M92.98,248.611l0,8.108l-19.438,0l0,24.429l16.32,0l-0.728,8.212l-15.592,0l0,28.795l19.958,0l0,7.9l-30.25,0l0,-77.444l29.73,0Z" style="fill:#384559;fill-rule:nonzero;"/><path d="M141.526,255.368c-2.287,0 -4.089,0.606 -5.406,1.819c-1.317,1.213 -2.287,3.101 -2.911,5.666c-0.623,2.564 -1.022,5.873 -1.195,9.927c-0.173,4.054 -0.26,8.922 -0.26,14.605c0,5.752 0.087,10.638 0.26,14.657c0.173,4.02 0.572,7.311 1.195,9.875c0.624,2.565 1.594,4.418 2.911,5.562c1.317,1.143 3.119,1.715 5.406,1.715c2.286,0 4.054,-0.346 5.301,-1.039c1.247,-0.693 2.166,-1.82 2.755,-3.379c0.589,-1.559 0.953,-3.621 1.091,-6.185c0.139,-2.564 0.277,-5.752 0.416,-9.563l10.291,0.831c-0.346,4.713 -0.71,8.784 -1.091,12.214c-0.381,3.431 -1.213,6.289 -2.495,8.576c-1.282,2.287 -3.171,3.985 -5.665,5.094c-2.495,1.109 -6.03,1.663 -10.603,1.663c-4.99,0 -8.871,-0.849 -11.643,-2.547c-2.772,-1.697 -4.816,-4.21 -6.133,-7.536c-1.317,-3.326 -2.114,-7.485 -2.391,-12.474c-0.277,-4.99 -0.416,-10.811 -0.416,-17.464c0,-6.584 0.139,-12.37 0.416,-17.36c0.277,-4.989 1.074,-9.182 2.391,-12.578c1.317,-3.396 3.361,-5.942 6.133,-7.64c2.772,-1.698 6.653,-2.547 11.643,-2.547c4.643,0 8.264,0.468 10.862,1.403c2.599,0.936 4.54,2.478 5.822,4.626c1.282,2.148 2.096,4.938 2.443,8.368c0.346,3.431 0.589,7.641 0.727,12.63l-10.083,1.352c-0.139,-4.297 -0.295,-7.762 -0.468,-10.396c-0.173,-2.633 -0.572,-4.677 -1.195,-6.133c-0.624,-1.455 -1.56,-2.442 -2.807,-2.962c-1.247,-0.52 -3.015,-0.78 -5.301,-0.78Z" style="fill:#384559;fill-rule:nonzero;"/><path d="M200.57,248.611l0,33.369l17.879,0l0,-33.369l10.291,0l0,77.444l-10.291,0l0,-35.967l-17.879,0l0,35.967l-10.395,0l0,-77.444l10.395,0Z" style="fill:#384559;fill-rule:nonzero;"/><path d="M258.886,248.611l10.707,0l18.815,53.639l0,-53.639l8.836,0l0,77.444l-10.603,0l-18.919,-53.535l0,53.535l-8.836,0l0,-77.444Z" style="fill:#384559;fill-rule:nonzero;"/><path d="M347.972,247.26c5.129,0 9.096,0.832 11.903,2.495c2.806,1.663 4.885,4.158 6.237,7.484c1.351,3.327 2.165,7.502 2.443,12.526c0.277,5.025 0.415,10.898 0.415,17.62c0,6.792 -0.138,12.682 -0.415,17.672c-0.278,4.989 -1.092,9.147 -2.443,12.474c-1.352,3.326 -3.431,5.804 -6.237,7.432c-2.807,1.629 -6.774,2.443 -11.903,2.443c-5.128,0 -9.13,-0.849 -12.006,-2.547c-2.876,-1.697 -5.024,-4.21 -6.445,-7.536c-1.421,-3.326 -2.304,-7.485 -2.651,-12.474c-0.346,-4.99 -0.52,-10.811 -0.52,-17.464c0,-6.584 0.174,-12.37 0.52,-17.36c0.347,-4.989 1.23,-9.182 2.651,-12.578c1.421,-3.396 3.569,-5.942 6.445,-7.64c2.876,-1.698 6.878,-2.547 12.006,-2.547Zm0,8.108c-2.495,0 -4.452,0.606 -5.873,1.819c-1.421,1.213 -2.495,3.101 -3.222,5.666c-0.728,2.564 -1.196,5.873 -1.404,9.927c-0.208,4.054 -0.312,8.922 -0.312,14.605c0,5.752 0.104,10.638 0.312,14.657c0.208,4.02 0.676,7.311 1.404,9.875c0.727,2.565 1.801,4.418 3.222,5.562c1.421,1.143 3.378,1.715 5.873,1.715c2.426,0 4.314,-0.572 5.666,-1.715c1.351,-1.144 2.356,-2.997 3.014,-5.562c0.659,-2.564 1.057,-5.855 1.196,-9.875c0.138,-4.019 0.208,-8.905 0.208,-14.657c0,-5.683 -0.07,-10.551 -0.208,-14.605c-0.139,-4.054 -0.537,-7.381 -1.196,-9.979c-0.658,-2.599 -1.663,-4.488 -3.014,-5.666c-1.352,-1.178 -3.24,-1.767 -5.666,-1.767Z" style="fill:#384559;fill-rule:nonzero;"/><path d="M417.827,255.368c-2.287,0 -4.088,0.606 -5.405,1.819c-1.317,1.213 -2.287,3.101 -2.911,5.666c-0.623,2.564 -1.022,5.873 -1.195,9.927c-0.173,4.054 -0.26,8.922 -0.26,14.605c0,5.752 0.087,10.638 0.26,14.657c0.173,4.02 0.572,7.311 1.195,9.875c0.624,2.565 1.594,4.418 2.911,5.562c1.317,1.143 3.118,1.715 5.405,1.715c2.287,0 4.055,-0.346 5.302,-1.039c1.247,-0.693 2.166,-1.82 2.755,-3.379c0.589,-1.559 0.953,-3.621 1.091,-6.185c0.139,-2.564 0.277,-5.752 0.416,-9.563l10.291,0.831c-0.346,4.713 -0.71,8.784 -1.091,12.214c-0.382,3.431 -1.213,6.289 -2.495,8.576c-1.282,2.287 -3.171,3.985 -5.666,5.094c-2.494,1.109 -6.029,1.663 -10.603,1.663c-4.989,0 -8.87,-0.849 -11.642,-2.547c-2.772,-1.697 -4.816,-4.21 -6.133,-7.536c-1.317,-3.326 -2.114,-7.485 -2.391,-12.474c-0.277,-4.99 -0.416,-10.811 -0.416,-17.464c0,-6.584 0.139,-12.37 0.416,-17.36c0.277,-4.989 1.074,-9.182 2.391,-12.578c1.317,-3.396 3.361,-5.942 6.133,-7.64c2.772,-1.698 6.653,-2.547 11.642,-2.547c4.644,0 8.265,0.468 10.863,1.403c2.599,0.936 4.539,2.478 5.822,4.626c1.282,2.148 2.096,4.938 2.442,8.368c0.347,3.431 0.589,7.641 0.728,12.63l-10.083,1.352c-0.139,-4.297 -0.295,-7.762 -0.468,-10.396c-0.173,-2.633 -0.572,-4.677 -1.195,-6.133c-0.624,-1.455 -1.56,-2.442 -2.807,-2.962c-1.247,-0.52 -3.015,-0.78 -5.302,-0.78Z" style="fill:#384559;fill-rule:nonzero;"/><path d="M491.841,326.055l-7.381,-34.72l-7.692,0l0,34.72l-10.291,0l0,-77.444l16.424,0c4.296,0 7.744,0.381 10.343,1.144c2.599,0.762 4.591,1.958 5.977,3.586c1.386,1.629 2.304,3.69 2.755,6.185c0.45,2.495 0.675,5.475 0.675,8.94c0,2.911 -0.121,5.579 -0.363,8.004c-0.243,2.426 -0.693,4.557 -1.352,6.393c-0.658,1.837 -1.559,3.379 -2.702,4.626c-1.144,1.247 -2.617,2.114 -4.418,2.599l9.459,35.967l-11.434,0Zm-7.589,-42.62c1.941,0 3.482,-0.243 4.626,-0.728c1.143,-0.485 2.027,-1.299 2.651,-2.443c0.623,-1.143 1.022,-2.65 1.195,-4.521c0.173,-1.872 0.26,-4.159 0.26,-6.861c0,-2.356 -0.087,-4.349 -0.26,-5.977c-0.173,-1.629 -0.572,-2.928 -1.195,-3.899c-0.624,-0.97 -1.577,-1.68 -2.859,-2.131c-1.282,-0.45 -2.997,-0.675 -5.146,-0.675l-6.756,0l0,27.235l7.484,0Z" style="fill:#384559;fill-rule:nonzero;"/><path d="M560.136,248.611l0,8.108l-19.438,0l0,24.429l16.32,0l-0.728,8.212l-15.592,0l0,28.795l19.958,0l0,7.9l-30.25,0l0,-77.444l29.73,0Z" style="fill:#384559;fill-rule:nonzero;"/><path d="M621.987,248.611l0,8.108l-13.202,0l0,69.336l-10.291,0l0,-69.336l-12.89,0l0,-8.108l36.383,0Z" style="fill:#384559;fill-rule:nonzero;"/><path d="M678.433,248.611l0,8.108l-19.439,0l0,24.429l16.32,0l-0.727,8.212l-15.593,0l0,28.795l19.958,0l0,7.9l-30.249,0l0,-77.444l29.73,0Z" style="fill:#384559;fill-rule:nonzero;"/></g></g></svg>